<?xml version="1.0" encoding="utf-8"?>
<!-- Generator: Adobe Illustrator 21.0.0, SVG Export Plug-In . SVG Version: 6.00 Build 0)  -->
<svg version="1.1" id="Layer_1" xmlns="http://www.w3.org/2000/svg" xmlns:xlink="http://www.w3.org/1999/xlink" x="0px" y="0px"
	 viewBox="0 0 485 295" style="enable-background:new 0 0 485 295;" xml:space="preserve">
<style type="text/css">
	.st0{fill:#CC1F5E;}
	.st1{fill:#520C31;}
	.st2{fill:#2C132A;}
	.st3{fill:#F15942;}
	.st4{fill:#FFFFFF;}
	.st5{font-family:'AbrilFatface-Regular';}
	.st6{font-size:43.706px;}
	.st7{font-family:'Lato-Bold';}
	.st8{font-size:27.1691px;}
</style>
<g>
	<path class="st0" d="M7.9,148v131.4c0,6.4,5.2,11.6,11.6,11.6H243V148H7.9z"/>
</g>
<g>
	<path class="st1" d="M243,291h223.5c6.4,0,11.6-5.2,11.6-11.6V148H243V291z"/>
</g>
<g>
	<path class="st2" d="M243,5H19.5C13.1,5,7.9,10.2,7.9,16.6V148H243V5z"/>
</g>
<g>
	<path class="st3" d="M466.5,5H243v143h235.1V16.6C478.1,10.2,472.9,5,466.5,5z"/>
</g>
<g>
	<path class="st4" d="M359,184H127c-6.6,0-12-5.4-12-12v-48c0-6.6,5.4-12,12-12h232c6.6,0,12,5.4,12,12v48
		C371,178.6,365.6,184,359,184z"/>
</g>
<text transform="matrix(1 0 0 1 148.2686 162.2812)" class="st5 st6">Audience</text>
<text transform="matrix(1 0 0 1 37.2314 76.0938)" class="st4 st7 st8">Demographics</text>
<text transform="matrix(1 0 0 1 299.7817 76.0938)" class="st4 st7 st8">Education</text>
<text transform="matrix(1 0 0 1 22.7368 237.0938)" class="st4 st7 st8">Prior Knowledge</text>
<text transform="matrix(1 0 0 1 281.7759 237.0938)" class="st4 st7 st8">Expectations</text>
</svg>
